{"title":"Hitchcock(2012)MPeg-4{DaScubaDude]","uid":14413536,"size":981960363,"categoryP":"video","categoryS":"movies","magnet":"?xt=urn:btih:f5e962039f1de41efb308cfceee8ae9aceedf75a&amp;dn=Hitchcock%282012%29MPeg-4%7BDaScubaDude%5D&amp;tr=udp%3A%2F%2Ftracker.leechers-paradise.org%3A6969&amp;tr=udp%3A%2F%2Fzer0day.ch%3A1337&amp;tr=udp%3A%2F%2Fopen.demonii.com%3A1337&amp;tr=udp%3A%2F%2Ftracker.coppersurfer.tk%3A6969&amp;tr=udp%3A%2F%2Fexodus.desync.com%3A6969","seeders":0,"leechers":1,"uploader":"dascuba","files":1,"time":1461467856,"description":"Hitchcock (2012)\r\nPG-13 | 1h 38min | Biography, Drama | 14 December 2012 (USA)\r\nA love story between the influential filmmaker Alfred Hitchcock and his wife Alma Reville during the filming of Psycho (1960) in 1959.\r\nDirector: Sacha Gervasi\r\nWriters: John J. McLaughlin (screenplay), Stephen Rebello (book)\r\nStars: Anthony Hopkins, Helen Mirren, Scarlett Johansson \r\n\r\nGeneral\r\nComplete name                            : HitchcockHITCHCOCK_Title1.mp4\r\nFormat                                   : MPEG-4\r\nFormat profile                           : Base Media\r\nCodec ID                                 : isom\r\nFile size                                : 936 MiB\r\nDuration                                 : 1h 38mn\r\nOverall bit rate                         : 1 333 Kbps\r\nMovie name                               : HITCHCOCK\r\nGenre                                    : Drama\r\nWriting application                      : Lavf54.6.100\r\n\r\nVideo\r\nID                                       : 1\r\nFormat                                   : AVC\r\nFormat/Info                              : Advanced Video Codec\r\nFormat profile                           :   \r\nFormat settings, CABAC                   : No\r\nFormat settings, ReFrames                : 6 frames\r\nCodec ID                                 : avc1\r\nCodec ID/Info                            : Advanced Video Coding\r\nDuration                                 : 1h 38mn\r\nBit rate                                 : 1 198 Kbps\r\nWidth                                    : 720 pixels\r\nHeight                                   : 404 pixels\r\nDisplay aspect ratio                     : 16:9\r\nFrame rate mode                          : Constant\r\nFrame rate                               : 29.970 fps\r\nColor space                              : YUV\r\nChroma subsampling                       : 4:2:0\r\nBit depth                                : 8 bits\r\nScan type                                : Progressive\r\nBits/(Pixel*Frame)                       : 0.137\r\nStream size                              : 842 MiB (90%)\r\n\r\nAudio\r\nID                                       : 2\r\nFormat                                   : AAC\r\nFormat/Info                              : Advanced Audio Codec\r\nFormat profile                           : LC\r\nCodec ID                                 : 40\r\nDuration                                 : 1h 38mn\r\nBit rate mode                            : Constant\r\nBit rate                                 : 128 Kbps\r\nChannel(s)                               : 2 channels\r\nChannel positions                        : Front: L R\r\nSampling rate                            : 44.1 KHz\r\nCompression mode                         : Lossy\r\nStream size                              : 89.9 MiB (10%)","torrent":{"xt":"urn:btih:f5e962039f1de41efb308cfceee8ae9aceedf75a","amp;dn":"Hitchcock%282012%29MPeg-4%7BDaScubaDude%5D","amp;tr":["udp%3A%2F%2Ftracker.leechers-paradise.org%3A6969","udp%3A%2F%2Fzer0day.ch%3A1337","udp%3A%2F%2Fopen.demonii.com%3A1337","udp%3A%2F%2Ftracker.coppersurfer.tk%3A6969","udp%3A%2F%2Fexodus.desync.com%3A6969"],"infoHash":"f5e962039f1de41efb308cfceee8ae9aceedf75a","infoHashBuffer":{"type":"Buffer","data":[245,233,98,3,159,29,228,30,251,48,140,252,238,232,174,154,206,237,247,90]},"announce":[],"urlList":[]}}